<mxfile host="app.diagrams.net" agent="Mozilla/5.0 (Macintosh; Intel Mac OS X 10_15_7) AppleWebKit/605.1.15 (KHTML, like Gecko) Version/18.2 Safari/605.1.15" version="26.0.6">
  <diagram id="C5RBs43oDa-KdzZeNtuy" name="Page-1">
    <mxGraphModel dx="845" dy="741" grid="1" gridSize="10" guides="1" tooltips="1" connect="1" arrows="1" fold="1" page="1" pageScale="1" pageWidth="827" pageHeight="1169" math="0" shadow="0">
      <root>
        <mxCell id="WIyWlLk6GJQsqaUBKTNV-0" />
        <mxCell id="WIyWlLk6GJQsqaUBKTNV-1" parent="WIyWlLk6GJQsqaUBKTNV-0" />
        <mxCell id="URhwQ4xU2O_V-cFC1iGv-11" value="" style="edgeStyle=orthogonalEdgeStyle;rounded=0;orthogonalLoop=1;jettySize=auto;html=1;" edge="1" parent="WIyWlLk6GJQsqaUBKTNV-1" source="URhwQ4xU2O_V-cFC1iGv-8" target="URhwQ4xU2O_V-cFC1iGv-10">
          <mxGeometry relative="1" as="geometry" />
        </mxCell>
        <mxCell id="URhwQ4xU2O_V-cFC1iGv-8" value="Game Start" style="html=1;dashed=0;whiteSpace=wrap;shape=mxgraph.dfd.start" vertex="1" parent="WIyWlLk6GJQsqaUBKTNV-1">
          <mxGeometry x="360" y="100" width="210" height="60" as="geometry" />
        </mxCell>
        <mxCell id="URhwQ4xU2O_V-cFC1iGv-14" value="Exit" style="edgeStyle=orthogonalEdgeStyle;rounded=0;orthogonalLoop=1;jettySize=auto;html=1;entryX=0;entryY=0.5;entryDx=0;entryDy=0;" edge="1" parent="WIyWlLk6GJQsqaUBKTNV-1" source="URhwQ4xU2O_V-cFC1iGv-10" target="URhwQ4xU2O_V-cFC1iGv-13">
          <mxGeometry relative="1" as="geometry" />
        </mxCell>
        <mxCell id="URhwQ4xU2O_V-cFC1iGv-16" value="Load" style="edgeStyle=orthogonalEdgeStyle;rounded=0;orthogonalLoop=1;jettySize=auto;html=1;entryX=0.5;entryY=0;entryDx=0;entryDy=0;" edge="1" parent="WIyWlLk6GJQsqaUBKTNV-1" source="URhwQ4xU2O_V-cFC1iGv-10" target="URhwQ4xU2O_V-cFC1iGv-15">
          <mxGeometry relative="1" as="geometry" />
        </mxCell>
        <mxCell id="URhwQ4xU2O_V-cFC1iGv-18" value="New" style="edgeStyle=orthogonalEdgeStyle;rounded=0;orthogonalLoop=1;jettySize=auto;html=1;entryX=1;entryY=0.5;entryDx=0;entryDy=0;" edge="1" parent="WIyWlLk6GJQsqaUBKTNV-1" source="URhwQ4xU2O_V-cFC1iGv-10" target="URhwQ4xU2O_V-cFC1iGv-19">
          <mxGeometry relative="1" as="geometry">
            <mxPoint x="270" y="240" as="targetPoint" />
            <mxPoint as="offset" />
          </mxGeometry>
        </mxCell>
        <mxCell id="URhwQ4xU2O_V-cFC1iGv-10" value="Options" style="rhombus;whiteSpace=wrap;html=1;dashed=0;" vertex="1" parent="WIyWlLk6GJQsqaUBKTNV-1">
          <mxGeometry x="360" y="200" width="210" height="80" as="geometry" />
        </mxCell>
        <mxCell id="URhwQ4xU2O_V-cFC1iGv-13" value="End" style="shape=parallelogram;perimeter=parallelogramPerimeter;whiteSpace=wrap;html=1;dashed=0;" vertex="1" parent="WIyWlLk6GJQsqaUBKTNV-1">
          <mxGeometry x="660" y="215" width="100" height="50" as="geometry" />
        </mxCell>
        <mxCell id="URhwQ4xU2O_V-cFC1iGv-27" style="edgeStyle=orthogonalEdgeStyle;rounded=0;orthogonalLoop=1;jettySize=auto;html=1;entryX=0.5;entryY=0;entryDx=0;entryDy=0;" edge="1" parent="WIyWlLk6GJQsqaUBKTNV-1" source="URhwQ4xU2O_V-cFC1iGv-15" target="URhwQ4xU2O_V-cFC1iGv-25">
          <mxGeometry relative="1" as="geometry" />
        </mxCell>
        <mxCell id="URhwQ4xU2O_V-cFC1iGv-15" value="Load Savefile&lt;div&gt;and initialize&lt;/div&gt;&lt;div&gt;GameState&lt;/div&gt;" style="html=1;dashed=0;whiteSpace=wrap;" vertex="1" parent="WIyWlLk6GJQsqaUBKTNV-1">
          <mxGeometry x="415" y="348" width="100" height="50" as="geometry" />
        </mxCell>
        <mxCell id="URhwQ4xU2O_V-cFC1iGv-26" style="edgeStyle=orthogonalEdgeStyle;rounded=0;orthogonalLoop=1;jettySize=auto;html=1;exitX=0.5;exitY=1;exitDx=0;exitDy=0;entryX=0;entryY=0.5;entryDx=0;entryDy=0;" edge="1" parent="WIyWlLk6GJQsqaUBKTNV-1" source="URhwQ4xU2O_V-cFC1iGv-19" target="URhwQ4xU2O_V-cFC1iGv-25">
          <mxGeometry relative="1" as="geometry">
            <mxPoint x="250" y="330" as="targetPoint" />
            <Array as="points">
              <mxPoint x="250" y="495" />
            </Array>
          </mxGeometry>
        </mxCell>
        <mxCell id="URhwQ4xU2O_V-cFC1iGv-19" value="Initialize new&lt;div&gt;GameState&lt;/div&gt;" style="html=1;dashed=0;whiteSpace=wrap;" vertex="1" parent="WIyWlLk6GJQsqaUBKTNV-1">
          <mxGeometry x="200" y="215" width="100" height="50" as="geometry" />
        </mxCell>
        <mxCell id="URhwQ4xU2O_V-cFC1iGv-32" value="Start Loop" style="edgeStyle=orthogonalEdgeStyle;rounded=0;orthogonalLoop=1;jettySize=auto;html=1;entryX=0.5;entryY=0;entryDx=0;entryDy=0;" edge="1" parent="WIyWlLk6GJQsqaUBKTNV-1" source="URhwQ4xU2O_V-cFC1iGv-25" target="URhwQ4xU2O_V-cFC1iGv-31">
          <mxGeometry relative="1" as="geometry" />
        </mxCell>
        <mxCell id="URhwQ4xU2O_V-cFC1iGv-25" value="GameState" style="shape=parallelogram;perimeter=parallelogramPerimeter;whiteSpace=wrap;html=1;dashed=0;" vertex="1" parent="WIyWlLk6GJQsqaUBKTNV-1">
          <mxGeometry x="415" y="470" width="100" height="50" as="geometry" />
        </mxCell>
        <mxCell id="URhwQ4xU2O_V-cFC1iGv-35" value="" style="edgeStyle=orthogonalEdgeStyle;rounded=0;orthogonalLoop=1;jettySize=auto;html=1;" edge="1" parent="WIyWlLk6GJQsqaUBKTNV-1" source="URhwQ4xU2O_V-cFC1iGv-31" target="URhwQ4xU2O_V-cFC1iGv-34">
          <mxGeometry relative="1" as="geometry" />
        </mxCell>
        <mxCell id="URhwQ4xU2O_V-cFC1iGv-31" value="Get next Action" style="html=1;dashed=0;whiteSpace=wrap;" vertex="1" parent="WIyWlLk6GJQsqaUBKTNV-1">
          <mxGeometry x="415" y="632" width="100" height="50" as="geometry" />
        </mxCell>
        <mxCell id="URhwQ4xU2O_V-cFC1iGv-36" value="No" style="edgeStyle=orthogonalEdgeStyle;rounded=0;orthogonalLoop=1;jettySize=auto;html=1;entryX=0;entryY=0.5;entryDx=0;entryDy=0;" edge="1" parent="WIyWlLk6GJQsqaUBKTNV-1" source="URhwQ4xU2O_V-cFC1iGv-34" target="URhwQ4xU2O_V-cFC1iGv-31">
          <mxGeometry x="-0.0972" relative="1" as="geometry">
            <Array as="points">
              <mxPoint x="320" y="780" />
              <mxPoint x="320" y="657" />
            </Array>
            <mxPoint as="offset" />
          </mxGeometry>
        </mxCell>
        <mxCell id="URhwQ4xU2O_V-cFC1iGv-41" value="Yes" style="edgeStyle=orthogonalEdgeStyle;rounded=0;orthogonalLoop=1;jettySize=auto;html=1;" edge="1" parent="WIyWlLk6GJQsqaUBKTNV-1" source="URhwQ4xU2O_V-cFC1iGv-34" target="URhwQ4xU2O_V-cFC1iGv-40">
          <mxGeometry relative="1" as="geometry" />
        </mxCell>
        <mxCell id="URhwQ4xU2O_V-cFC1iGv-34" value="Is Action available?" style="rhombus;whiteSpace=wrap;html=1;dashed=0;" vertex="1" parent="WIyWlLk6GJQsqaUBKTNV-1">
          <mxGeometry x="390" y="740" width="150" height="80" as="geometry" />
        </mxCell>
        <mxCell id="URhwQ4xU2O_V-cFC1iGv-43" value="Yes" style="edgeStyle=orthogonalEdgeStyle;rounded=0;orthogonalLoop=1;jettySize=auto;html=1;" edge="1" parent="WIyWlLk6GJQsqaUBKTNV-1" source="URhwQ4xU2O_V-cFC1iGv-40" target="URhwQ4xU2O_V-cFC1iGv-42">
          <mxGeometry relative="1" as="geometry" />
        </mxCell>
        <mxCell id="URhwQ4xU2O_V-cFC1iGv-46" value="No" style="edgeStyle=orthogonalEdgeStyle;rounded=0;orthogonalLoop=1;jettySize=auto;html=1;" edge="1" parent="WIyWlLk6GJQsqaUBKTNV-1" source="URhwQ4xU2O_V-cFC1iGv-40" target="URhwQ4xU2O_V-cFC1iGv-45">
          <mxGeometry relative="1" as="geometry" />
        </mxCell>
        <mxCell id="URhwQ4xU2O_V-cFC1iGv-40" value="Requires User Interaction?" style="rhombus;whiteSpace=wrap;html=1;dashed=0;fontSize=10;" vertex="1" parent="WIyWlLk6GJQsqaUBKTNV-1">
          <mxGeometry x="390" y="870" width="150" height="80" as="geometry" />
        </mxCell>
        <mxCell id="URhwQ4xU2O_V-cFC1iGv-47" style="edgeStyle=orthogonalEdgeStyle;rounded=0;orthogonalLoop=1;jettySize=auto;html=1;entryX=1;entryY=0.5;entryDx=0;entryDy=0;" edge="1" parent="WIyWlLk6GJQsqaUBKTNV-1" source="URhwQ4xU2O_V-cFC1iGv-42" target="URhwQ4xU2O_V-cFC1iGv-45">
          <mxGeometry relative="1" as="geometry">
            <Array as="points">
              <mxPoint x="700" y="1040" />
            </Array>
          </mxGeometry>
        </mxCell>
        <mxCell id="URhwQ4xU2O_V-cFC1iGv-42" value="Present Prompt und wait for input" style="whiteSpace=wrap;html=1;dashed=0;" vertex="1" parent="WIyWlLk6GJQsqaUBKTNV-1">
          <mxGeometry x="635" y="880" width="120" height="60" as="geometry" />
        </mxCell>
        <mxCell id="URhwQ4xU2O_V-cFC1iGv-49" value="" style="edgeStyle=orthogonalEdgeStyle;rounded=0;orthogonalLoop=1;jettySize=auto;html=1;" edge="1" parent="WIyWlLk6GJQsqaUBKTNV-1" source="URhwQ4xU2O_V-cFC1iGv-45" target="URhwQ4xU2O_V-cFC1iGv-48">
          <mxGeometry relative="1" as="geometry" />
        </mxCell>
        <mxCell id="URhwQ4xU2O_V-cFC1iGv-45" value="Run Action" style="whiteSpace=wrap;html=1;dashed=0;" vertex="1" parent="WIyWlLk6GJQsqaUBKTNV-1">
          <mxGeometry x="405" y="1010" width="120" height="60" as="geometry" />
        </mxCell>
        <mxCell id="URhwQ4xU2O_V-cFC1iGv-51" value="No" style="edgeStyle=orthogonalEdgeStyle;rounded=0;orthogonalLoop=1;jettySize=auto;html=1;" edge="1" parent="WIyWlLk6GJQsqaUBKTNV-1" source="URhwQ4xU2O_V-cFC1iGv-48">
          <mxGeometry relative="1" as="geometry">
            <mxPoint x="320" y="780" as="targetPoint" />
          </mxGeometry>
        </mxCell>
        <mxCell id="URhwQ4xU2O_V-cFC1iGv-48" value="Needs to add something to the loop?" style="rhombus;whiteSpace=wrap;html=1;dashed=0;fontSize=7;" vertex="1" parent="WIyWlLk6GJQsqaUBKTNV-1">
          <mxGeometry x="390" y="1140" width="150" height="80" as="geometry" />
        </mxCell>
      </root>
    </mxGraphModel>
  </diagram>
</mxfile>
